<?xml version="1.0" encoding="UTF-8" standalone="no"?>
<!-- Created with Inkscape (http://www.inkscape.org/) -->

<svg
   width="175.34424mm"
   height="15.918557mm"
   viewBox="0 0 175.34424 15.918557"
   version="1.1"
   id="svg5"
   inkscape:version="1.1.1 (3bf5ae0d25, 2021-09-20)"
   sodipodi:docname="autor - copia.svg"
   xmlns:inkscape="http://www.inkscape.org/namespaces/inkscape"
   xmlns:sodipodi="http://sodipodi.sourceforge.net/DTD/sodipodi-0.dtd"
   xmlns="http://www.w3.org/2000/svg"
   xmlns:svg="http://www.w3.org/2000/svg">
  <sodipodi:namedview
     id="namedview7"
     pagecolor="#505050"
     bordercolor="#eeeeee"
     borderopacity="1"
     inkscape:pageshadow="0"
     inkscape:pageopacity="0"
     inkscape:pagecheckerboard="0"
     inkscape:document-units="mm"
     showgrid="false"
     inkscape:zoom="0.92648709"
     inkscape:cx="338.37493"
     inkscape:cy="71.776499"
     inkscape:window-width="1366"
     inkscape:window-height="705"
     inkscape:window-x="-8"
     inkscape:window-y="-8"
     inkscape:window-maximized="1"
     inkscape:current-layer="layer1"
     fit-margin-top="0"
     fit-margin-left="0"
     fit-margin-right="0"
     fit-margin-bottom="0" />
  <defs
     id="defs2" />
  <g
     inkscape:label="Capa 1"
     inkscape:groupmode="layer"
     id="layer1"
     transform="translate(-14.849999,-6.6420188)"
     sodipodi:insensitive="true">
    <g
       aria-label="Damián Zabcic"
       id="text1376"
       style="font-size:13.2604px;line-height:1.25;text-align:center;text-anchor:middle;fill:#ffffff;stroke-width:0.710376">
      <path
         d="M 17.158449,20.103114 V 8.5002642 h 8.28775 v 1.6575498 h 1.65755 v 1.65755 h 1.65755 v 4.97265 h -1.65755 v 1.65755 h -1.65755 v 1.65755 z m 3.3151,-1.65755 h 3.3151 v -1.65755 h 1.65755 v -4.97265 h -1.65755 v -1.65755 h -3.3151 z"
         style="font-family:'Press Start 2P';-inkscape-font-specification:'Press Start 2P'"
         id="path823" />
      <path
         d="m 32.076373,20.103114 v -1.65755 h -1.65755 v -1.65755 h 1.65755 v -1.65755 h 6.6302 v -1.65755 h -6.6302 v -1.65755 h 8.28775 v 1.65755 h 1.65755 v 6.6302 z m 1.65755,-1.65755 h 4.97265 v -1.65755 h -4.97265 z"
         style="font-family:'Press Start 2P';-inkscape-font-specification:'Press Start 2P'"
         id="path825" />
      <path
         d="m 43.679197,20.103114 v -8.28775 h 9.9453 v 1.65755 h 1.65755 v 6.6302 h -3.3151 v -6.6302 h -1.65755 v 6.6302 h -3.3151 v -6.6302 h -1.65755 v 6.6302 z"
         style="font-family:'Press Start 2P';-inkscape-font-specification:'Press Start 2P'"
         id="path827" />
      <path
         d="M 61.912219,10.157814 V 8.5002642 h 3.3151 v 1.6575498 z m -3.3151,9.9453 v -1.65755 h 3.3151 v -4.97265 h -1.65755 v -1.65755 h 4.97265 v 6.6302 h 3.3151 v 1.65755 z"
         style="font-family:'Press Start 2P';-inkscape-font-specification:'Press Start 2P'"
         id="path829" />
      <path
         d="m 78.487695,10.157814 h -1.65755 V 8.5002642 h 1.65755 z m 3.3151,3.3151 v 6.6302 h -9.9453 v -1.65755 h -1.65755 v -1.65755 h 1.65755 v -1.65755 h 6.6302 v -1.65755 h -6.6302 v -1.65755 h 3.3151 v -1.65755 h 1.65755 v 1.65755 h 3.3151 v 1.65755 z m -3.3151,3.3151 h -4.97265 v 1.65755 h 4.97265 z"
         style="font-family:'Press Start 2P';-inkscape-font-specification:'Press Start 2P'"
         id="path831" />
      <path
         d="m 83.460321,20.103114 v -8.28775 h 9.9453 v 1.65755 h 1.65755 v 6.6302 h -3.3151 v -6.6302 h -4.97265 v 6.6302 z"
         style="font-family:'Press Start 2P';-inkscape-font-specification:'Press Start 2P'"
         id="path833" />
      <path
         d="m 109.98107,20.103114 v -3.3151 h 1.65755 v -1.65755 h 1.65755 v -1.65755 h 1.65755 v -1.65755 h 1.65755 v -1.65755 h -6.6302 V 8.5002642 h 11.60285 v 3.3150998 h -1.65755 v 1.65755 h -1.65755 v 1.65755 h -1.65755 v 1.65755 h -1.65755 v 1.65755 h 6.6302 v 1.65755 z"
         style="font-family:'Press Start 2P';-inkscape-font-specification:'Press Start 2P'"
         id="path835" />
      <path
         d="m 124.89899,20.103114 v -1.65755 h -1.65755 v -1.65755 h 1.65755 v -1.65755 h 6.6302 v -1.65755 h -6.6302 v -1.65755 h 8.28775 v 1.65755 h 1.65755 v 6.6302 z m 1.65755,-1.65755 h 4.97265 v -1.65755 h -4.97265 z"
         style="font-family:'Press Start 2P';-inkscape-font-specification:'Press Start 2P'"
         id="path837" />
      <path
         d="m 138.15937,20.103114 v -1.65755 h -1.65755 V 8.5002642 h 3.3151 v 3.3150998 h 6.6302 v 1.65755 h 1.65755 v 4.97265 h -1.65755 v 1.65755 z m 1.65755,-1.65755 h 4.97265 v -4.97265 h -4.97265 z"
         style="font-family:'Press Start 2P';-inkscape-font-specification:'Press Start 2P'"
         id="path839" />
      <path
         d="m 151.41974,20.103114 v -1.65755 h -1.65755 v -4.97265 h 1.65755 v -1.65755 h 9.9453 v 1.65755 h -8.28775 v 4.97265 h 8.28775 v 1.65755 z"
         style="font-family:'Press Start 2P';-inkscape-font-specification:'Press Start 2P'"
         id="path841" />
      <path
         d="M 167.99522,10.157814 V 8.5002642 h 3.3151 v 1.6575498 z m -3.3151,9.9453 v -1.65755 h 3.3151 v -4.97265 h -1.65755 v -1.65755 h 4.97265 v 6.6302 h 3.3151 v 1.65755 z"
         style="font-family:'Press Start 2P';-inkscape-font-specification:'Press Start 2P'"
         id="path843" />
      <path
         d="m 177.94048,20.103114 v -1.65755 h -1.65755 v -4.97265 h 1.65755 v -1.65755 h 9.9453 v 1.65755 h -8.28775 v 4.97265 h 8.28775 v 1.65755 z"
         style="font-family:'Press Start 2P';-inkscape-font-specification:'Press Start 2P'"
         id="path845" />
    </g>
  </g>
</svg>
